<?xml version="1.0" encoding="UTF-8"?>
<!DOCTYPE svg PUBLIC "-//W3C//DTD SVG 1.1//EN" "http://www.w3.org/Graphics/SVG/1.1/DTD/svg11.dtd">
<!-- Creator: CorelDRAW 2018 (64-Bit) -->
<svg xmlns="http://www.w3.org/2000/svg" xml:space="preserve" width="1.71975in" height="0.229996in" version="1.1" style="shape-rendering:geometricPrecision; text-rendering:geometricPrecision; image-rendering:optimizeQuality; fill-rule:evenodd; clip-rule:evenodd"
viewBox="0 0 635.83 85.03"
 xmlns:xlink="http://www.w3.org/1999/xlink">
 <defs>
  <style type="text/css">
   <![CDATA[
    .str1 {stroke:#F7D417;stroke-width:2.57;stroke-miterlimit:2.61313}
    .str0 {stroke:#F7D417;stroke-width:3.42;stroke-miterlimit:2.61313}
    .fil0 {fill:#231F20;fill-rule:nonzero}
    .fil1 {fill:#F7D417;fill-rule:nonzero}
   ]]>
  </style>
 </defs>
 <g id="Layer_x0020_1">
  <metadata id="CorelCorpID_0Corel-Layer"/>
  <g id="_2286103706928">
   <polygon class="fil0 str0" points="608,64.35 608.11,81.84 524.38,81.9 524.38,3.33 608.17,3.33 608.17,20.87 547.78,20.87 547.78,33.85 598.04,33.85 598.04,53.32 547.78,53.32 547.72,64.35 "/>
   <polygon class="fil0 str0" points="427,3.35 508.51,3.24 508.62,22.46 478.35,22.46 478.29,82.81 456.24,82.75 456.24,22.15 426.77,22.15 "/>
   <polygon class="fil0 str0" points="385.42,4.01 411.16,4.01 411.16,83.27 385.42,83.27 "/>
   <polygon class="fil0 str0" points="305.62,3.34 331,3.34 331.35,63.83 370.71,63.84 371.07,82.6 305.62,82.6 "/>
   <path class="fil0 str0" d="M278.83 71.34c-9.31,7.99 -20.51,11.98 -33.6,11.98 -13.09,0 -24.31,-3.99 -33.65,-11.98 -9.35,-7.98 -14.02,-17.57 -14.02,-28.75 0,-11.28 4.67,-20.91 14.02,-28.91 9.35,-7.98 20.57,-11.98 33.65,-11.98 13.09,0 24.29,3.99 33.6,11.98 9.31,8 13.97,17.63 13.97,28.91 0,11.17 -4.66,20.76 -13.97,28.75zm-16.01 -42.74c-4.92,-3.98 -10.82,-5.97 -17.72,-5.97 -6.87,0.03 -12.75,2.06 -17.64,6.09 -4.89,4.02 -7.31,8.84 -7.31,14.44 0,5.62 2.43,10.42 7.31,14.38 4.88,3.96 10.77,5.94 17.64,5.94 6.91,-0.03 12.8,-2.05 17.72,-6.05 4.92,-4.01 7.38,-8.82 7.38,-14.41 0,-5.64 -2.46,-10.43 -7.38,-14.41z"/>
   <path class="fil0 str0" d="M128.16 82.1l-23.91 -0.09 0.22 -79.21 52.9 -0.11c16.03,0.67 31.98,11.1 28.41,29.13 -1.12,5.67 -3.89,10.99 -12.77,14.43l23.39 35.82 -25.4 -0.06 -29.13 -43.6 13.88 -0.15c4.76,-1.42 6.71,-3.28 6.82,-8.86 0.11,-5.59 -3.11,-7.71 -10.95,-7.65l-23.3 0.16 -0.16 60.19z"/>
   <path class="fil0 str0" d="M25.95 22.26l-0.14 59.37 -24.1 0 0 -78.82 46.02 0c26.1,0 41.96,8.01 41.97,24.17 0.01,10.01 -9.64,18.5 -23.45,18.27l-16.56 -0.27 -0.75 -1.87c10.25,-0.83 15.39,-4.59 15.39,-11.28 0,-8.12 -5.61,-9.97 -16.8,-9.83l-21.58 0.28z"/>
  </g>
  <path class="fil1 str1" d="M616.95 83.04l0 -9.18 -3.28 0 0 -1.87 8.78 0 0 1.87 -3.27 0 0 9.18 -2.23 0zm6.92 0l0 -11.06 3.34 0 2.01 7.54 1.98 -7.54 3.35 0 0 11.06 -2.07 0 0 -8.7 -2.2 8.7 -2.15 0 -2.19 -8.7 0 8.7 -2.07 0z"/>
  <path class="fil0" d="M616.95 83.04l0 -9.18 -3.28 0 0 -1.87 8.78 0 0 1.87 -3.27 0 0 9.18 -2.23 0zm6.92 0l0 -11.06 3.34 0 2.01 7.54 1.98 -7.54 3.35 0 0 11.06 -2.07 0 0 -8.7 -2.2 8.7 -2.15 0 -2.19 -8.7 0 8.7 -2.07 0z"/>
 </g>
</svg>
